<mxfile host="app.diagrams.net" agent="Mozilla/5.0 (Windows NT 10.0; Win64; x64) AppleWebKit/537.36 (KHTML, like Gecko) Chrome/138.0.0.0 YaBrowser/25.8.0.0 Safari/537.36" version="28.2.5">
  <diagram id="MdgIvjfj-olzKIzZ0ZZQ" name="Страница — 1">
    <mxGraphModel dx="6947" dy="4639" grid="0" gridSize="10" guides="1" tooltips="1" connect="1" arrows="1" fold="1" page="1" pageScale="1" pageWidth="4681" pageHeight="3300" background="#ffffff" math="0" shadow="0">
      <root>
        <mxCell id="0" />
        <mxCell id="1" parent="0" />
        <mxCell id="uZsumO2O-Ix8cj6PFFoW-1" style="edgeStyle=orthogonalEdgeStyle;rounded=0;orthogonalLoop=1;jettySize=auto;html=1;exitX=0.5;exitY=0;exitDx=0;exitDy=0;entryX=0.5;entryY=1;entryDx=0;entryDy=0;curved=1;endArrow=none;endFill=0;" edge="1" parent="1" source="yIZ_W_vqHQh3KndWrSQR-72" target="x2GnNRhoElomt2OgKQ6f-135">
          <mxGeometry relative="1" as="geometry" />
        </mxCell>
        <mxCell id="uZsumO2O-Ix8cj6PFFoW-3" style="edgeStyle=orthogonalEdgeStyle;rounded=0;orthogonalLoop=1;jettySize=auto;html=1;exitX=0.5;exitY=0;exitDx=0;exitDy=0;entryX=0.5;entryY=1;entryDx=0;entryDy=0;curved=1;endArrow=none;endFill=0;" edge="1" parent="1" source="yIZ_W_vqHQh3KndWrSQR-72" target="x2GnNRhoElomt2OgKQ6f-139">
          <mxGeometry relative="1" as="geometry" />
        </mxCell>
        <mxCell id="uZsumO2O-Ix8cj6PFFoW-4" style="edgeStyle=orthogonalEdgeStyle;rounded=0;orthogonalLoop=1;jettySize=auto;html=1;exitX=0.5;exitY=0;exitDx=0;exitDy=0;entryX=0.5;entryY=1;entryDx=0;entryDy=0;curved=1;endArrow=none;endFill=0;" edge="1" parent="1" source="yIZ_W_vqHQh3KndWrSQR-72" target="x2GnNRhoElomt2OgKQ6f-142">
          <mxGeometry relative="1" as="geometry" />
        </mxCell>
        <mxCell id="uZsumO2O-Ix8cj6PFFoW-5" style="edgeStyle=orthogonalEdgeStyle;rounded=0;orthogonalLoop=1;jettySize=auto;html=1;exitX=0.5;exitY=0;exitDx=0;exitDy=0;entryX=0.5;entryY=1;entryDx=0;entryDy=0;curved=1;endArrow=none;endFill=0;" edge="1" parent="1" source="yIZ_W_vqHQh3KndWrSQR-72" target="x2GnNRhoElomt2OgKQ6f-143">
          <mxGeometry relative="1" as="geometry" />
        </mxCell>
        <mxCell id="uZsumO2O-Ix8cj6PFFoW-6" style="edgeStyle=orthogonalEdgeStyle;rounded=0;orthogonalLoop=1;jettySize=auto;html=1;exitX=0.5;exitY=0;exitDx=0;exitDy=0;entryX=0.5;entryY=1;entryDx=0;entryDy=0;curved=1;endArrow=none;endFill=0;" edge="1" parent="1" source="yIZ_W_vqHQh3KndWrSQR-72" target="x2GnNRhoElomt2OgKQ6f-145">
          <mxGeometry relative="1" as="geometry" />
        </mxCell>
        <mxCell id="uZsumO2O-Ix8cj6PFFoW-8" style="edgeStyle=orthogonalEdgeStyle;rounded=0;orthogonalLoop=1;jettySize=auto;html=1;exitX=0.5;exitY=0;exitDx=0;exitDy=0;entryX=0.5;entryY=1;entryDx=0;entryDy=0;curved=1;endArrow=none;endFill=0;" edge="1" parent="1" source="yIZ_W_vqHQh3KndWrSQR-72" target="x2GnNRhoElomt2OgKQ6f-147">
          <mxGeometry relative="1" as="geometry" />
        </mxCell>
        <mxCell id="uZsumO2O-Ix8cj6PFFoW-9" style="edgeStyle=orthogonalEdgeStyle;rounded=0;orthogonalLoop=1;jettySize=auto;html=1;exitX=0.5;exitY=0;exitDx=0;exitDy=0;entryX=0.5;entryY=1;entryDx=0;entryDy=0;curved=1;endArrow=none;endFill=0;" edge="1" parent="1" source="yIZ_W_vqHQh3KndWrSQR-72" target="x2GnNRhoElomt2OgKQ6f-149">
          <mxGeometry relative="1" as="geometry" />
        </mxCell>
        <mxCell id="yIZ_W_vqHQh3KndWrSQR-72" value="Сотрудник" style="rounded=0;whiteSpace=wrap;html=1;" parent="1" vertex="1">
          <mxGeometry x="160" y="80" width="120" height="60" as="geometry" />
        </mxCell>
        <mxCell id="uZsumO2O-Ix8cj6PFFoW-10" style="edgeStyle=orthogonalEdgeStyle;rounded=0;orthogonalLoop=1;jettySize=auto;html=1;exitX=0;exitY=0.5;exitDx=0;exitDy=0;entryX=1;entryY=0.5;entryDx=0;entryDy=0;curved=1;endArrow=none;endFill=0;" edge="1" parent="1" source="yIZ_W_vqHQh3KndWrSQR-74" target="yIZ_W_vqHQh3KndWrSQR-168">
          <mxGeometry relative="1" as="geometry" />
        </mxCell>
        <mxCell id="uZsumO2O-Ix8cj6PFFoW-11" style="edgeStyle=orthogonalEdgeStyle;rounded=0;orthogonalLoop=1;jettySize=auto;html=1;exitX=0;exitY=0.5;exitDx=0;exitDy=0;entryX=1;entryY=0.5;entryDx=0;entryDy=0;curved=1;endArrow=none;endFill=0;" edge="1" parent="1" source="yIZ_W_vqHQh3KndWrSQR-74" target="yIZ_W_vqHQh3KndWrSQR-167">
          <mxGeometry relative="1" as="geometry" />
        </mxCell>
        <mxCell id="uZsumO2O-Ix8cj6PFFoW-12" style="edgeStyle=orthogonalEdgeStyle;rounded=0;orthogonalLoop=1;jettySize=auto;html=1;exitX=0;exitY=0.5;exitDx=0;exitDy=0;entryX=1;entryY=0.5;entryDx=0;entryDy=0;curved=1;endArrow=none;endFill=0;" edge="1" parent="1" source="yIZ_W_vqHQh3KndWrSQR-74" target="yIZ_W_vqHQh3KndWrSQR-172">
          <mxGeometry relative="1" as="geometry" />
        </mxCell>
        <mxCell id="uZsumO2O-Ix8cj6PFFoW-13" style="edgeStyle=orthogonalEdgeStyle;rounded=0;orthogonalLoop=1;jettySize=auto;html=1;exitX=0;exitY=0.5;exitDx=0;exitDy=0;entryX=1;entryY=0.5;entryDx=0;entryDy=0;curved=1;endArrow=none;endFill=0;" edge="1" parent="1" source="yIZ_W_vqHQh3KndWrSQR-74" target="yIZ_W_vqHQh3KndWrSQR-173">
          <mxGeometry relative="1" as="geometry" />
        </mxCell>
        <mxCell id="yIZ_W_vqHQh3KndWrSQR-74" value="Роль" style="rounded=0;whiteSpace=wrap;html=1;" parent="1" vertex="1">
          <mxGeometry x="160" y="250" width="120" height="60" as="geometry" />
        </mxCell>
        <mxCell id="uZsumO2O-Ix8cj6PFFoW-15" style="edgeStyle=orthogonalEdgeStyle;rounded=0;orthogonalLoop=1;jettySize=auto;html=1;exitX=0;exitY=0.5;exitDx=0;exitDy=0;entryX=1;entryY=0.5;entryDx=0;entryDy=0;curved=1;endArrow=none;endFill=0;" edge="1" parent="1" source="yIZ_W_vqHQh3KndWrSQR-75" target="x2GnNRhoElomt2OgKQ6f-17">
          <mxGeometry relative="1" as="geometry" />
        </mxCell>
        <mxCell id="uZsumO2O-Ix8cj6PFFoW-16" style="edgeStyle=orthogonalEdgeStyle;rounded=0;orthogonalLoop=1;jettySize=auto;html=1;exitX=0;exitY=0.5;exitDx=0;exitDy=0;entryX=1;entryY=0.5;entryDx=0;entryDy=0;curved=1;endArrow=none;endFill=0;" edge="1" parent="1" source="yIZ_W_vqHQh3KndWrSQR-75" target="x2GnNRhoElomt2OgKQ6f-1">
          <mxGeometry relative="1" as="geometry" />
        </mxCell>
        <mxCell id="uZsumO2O-Ix8cj6PFFoW-17" style="edgeStyle=orthogonalEdgeStyle;rounded=0;orthogonalLoop=1;jettySize=auto;html=1;exitX=0;exitY=0.5;exitDx=0;exitDy=0;entryX=1;entryY=0.5;entryDx=0;entryDy=0;curved=1;endArrow=none;endFill=0;" edge="1" parent="1" source="yIZ_W_vqHQh3KndWrSQR-75" target="x2GnNRhoElomt2OgKQ6f-3">
          <mxGeometry relative="1" as="geometry" />
        </mxCell>
        <mxCell id="uZsumO2O-Ix8cj6PFFoW-18" style="edgeStyle=orthogonalEdgeStyle;rounded=0;orthogonalLoop=1;jettySize=auto;html=1;exitX=0;exitY=0.5;exitDx=0;exitDy=0;entryX=1;entryY=0.5;entryDx=0;entryDy=0;curved=1;endArrow=none;endFill=0;" edge="1" parent="1" source="yIZ_W_vqHQh3KndWrSQR-75" target="x2GnNRhoElomt2OgKQ6f-8">
          <mxGeometry relative="1" as="geometry" />
        </mxCell>
        <mxCell id="uZsumO2O-Ix8cj6PFFoW-19" style="edgeStyle=orthogonalEdgeStyle;rounded=0;orthogonalLoop=1;jettySize=auto;html=1;exitX=0;exitY=0.5;exitDx=0;exitDy=0;entryX=1;entryY=0.5;entryDx=0;entryDy=0;curved=1;endArrow=none;endFill=0;" edge="1" parent="1" source="yIZ_W_vqHQh3KndWrSQR-75" target="x2GnNRhoElomt2OgKQ6f-15">
          <mxGeometry relative="1" as="geometry" />
        </mxCell>
        <mxCell id="uZsumO2O-Ix8cj6PFFoW-20" style="edgeStyle=orthogonalEdgeStyle;rounded=0;orthogonalLoop=1;jettySize=auto;html=1;exitX=0;exitY=0.5;exitDx=0;exitDy=0;entryX=1;entryY=0.5;entryDx=0;entryDy=0;curved=1;endArrow=none;endFill=0;" edge="1" parent="1" source="yIZ_W_vqHQh3KndWrSQR-75" target="x2GnNRhoElomt2OgKQ6f-22">
          <mxGeometry relative="1" as="geometry" />
        </mxCell>
        <mxCell id="uZsumO2O-Ix8cj6PFFoW-23" style="edgeStyle=orthogonalEdgeStyle;rounded=0;orthogonalLoop=1;jettySize=auto;html=1;exitX=0;exitY=0.5;exitDx=0;exitDy=0;entryX=1;entryY=0.5;entryDx=0;entryDy=0;curved=1;endArrow=none;endFill=0;" edge="1" parent="1" source="yIZ_W_vqHQh3KndWrSQR-75" target="x2GnNRhoElomt2OgKQ6f-20">
          <mxGeometry relative="1" as="geometry" />
        </mxCell>
        <mxCell id="yIZ_W_vqHQh3KndWrSQR-75" value="Клиент" style="rounded=0;whiteSpace=wrap;html=1;" parent="1" vertex="1">
          <mxGeometry x="160" y="340" width="120" height="60" as="geometry" />
        </mxCell>
        <mxCell id="uZsumO2O-Ix8cj6PFFoW-24" style="edgeStyle=orthogonalEdgeStyle;rounded=0;orthogonalLoop=1;jettySize=auto;html=1;exitX=0;exitY=0.5;exitDx=0;exitDy=0;entryX=1;entryY=0.5;entryDx=0;entryDy=0;endArrow=none;endFill=0;curved=1;" edge="1" parent="1" source="yIZ_W_vqHQh3KndWrSQR-76" target="yIZ_W_vqHQh3KndWrSQR-181">
          <mxGeometry relative="1" as="geometry" />
        </mxCell>
        <mxCell id="uZsumO2O-Ix8cj6PFFoW-25" style="edgeStyle=orthogonalEdgeStyle;rounded=0;orthogonalLoop=1;jettySize=auto;html=1;exitX=0;exitY=0.5;exitDx=0;exitDy=0;entryX=1;entryY=0.5;entryDx=0;entryDy=0;curved=1;endArrow=none;endFill=0;" edge="1" parent="1" source="yIZ_W_vqHQh3KndWrSQR-76" target="yIZ_W_vqHQh3KndWrSQR-184">
          <mxGeometry relative="1" as="geometry" />
        </mxCell>
        <mxCell id="uZsumO2O-Ix8cj6PFFoW-26" style="edgeStyle=orthogonalEdgeStyle;rounded=0;orthogonalLoop=1;jettySize=auto;html=1;exitX=0;exitY=0.5;exitDx=0;exitDy=0;entryX=1;entryY=0.5;entryDx=0;entryDy=0;curved=1;endArrow=none;endFill=0;" edge="1" parent="1" source="yIZ_W_vqHQh3KndWrSQR-76" target="yIZ_W_vqHQh3KndWrSQR-185">
          <mxGeometry relative="1" as="geometry">
            <Array as="points">
              <mxPoint x="154" y="470" />
              <mxPoint x="154" y="522" />
              <mxPoint x="165" y="522" />
              <mxPoint x="165" y="564" />
            </Array>
          </mxGeometry>
        </mxCell>
        <mxCell id="yIZ_W_vqHQh3KndWrSQR-76" value="Страна" style="rounded=0;whiteSpace=wrap;html=1;" parent="1" vertex="1">
          <mxGeometry x="160" y="440" width="120" height="60" as="geometry" />
        </mxCell>
        <mxCell id="uZsumO2O-Ix8cj6PFFoW-27" style="edgeStyle=orthogonalEdgeStyle;rounded=0;orthogonalLoop=1;jettySize=auto;html=1;exitX=0;exitY=0.5;exitDx=0;exitDy=0;entryX=1;entryY=0.5;entryDx=0;entryDy=0;curved=1;endArrow=none;endFill=0;" edge="1" parent="1" source="yIZ_W_vqHQh3KndWrSQR-77" target="x2GnNRhoElomt2OgKQ6f-25">
          <mxGeometry relative="1" as="geometry" />
        </mxCell>
        <mxCell id="uZsumO2O-Ix8cj6PFFoW-28" style="edgeStyle=orthogonalEdgeStyle;rounded=0;orthogonalLoop=1;jettySize=auto;html=1;exitX=0;exitY=0.5;exitDx=0;exitDy=0;entryX=1;entryY=0.5;entryDx=0;entryDy=0;curved=1;endArrow=none;endFill=0;" edge="1" parent="1" source="yIZ_W_vqHQh3KndWrSQR-77" target="x2GnNRhoElomt2OgKQ6f-27">
          <mxGeometry relative="1" as="geometry" />
        </mxCell>
        <mxCell id="uZsumO2O-Ix8cj6PFFoW-29" style="edgeStyle=orthogonalEdgeStyle;rounded=0;orthogonalLoop=1;jettySize=auto;html=1;exitX=0;exitY=0.5;exitDx=0;exitDy=0;entryX=1;entryY=0.5;entryDx=0;entryDy=0;curved=1;endArrow=none;endFill=0;" edge="1" parent="1" source="yIZ_W_vqHQh3KndWrSQR-77" target="x2GnNRhoElomt2OgKQ6f-29">
          <mxGeometry relative="1" as="geometry" />
        </mxCell>
        <mxCell id="yIZ_W_vqHQh3KndWrSQR-77" value="Город" style="rounded=0;whiteSpace=wrap;html=1;" parent="1" vertex="1">
          <mxGeometry x="160" y="650" width="120" height="60" as="geometry" />
        </mxCell>
        <mxCell id="uZsumO2O-Ix8cj6PFFoW-30" style="edgeStyle=orthogonalEdgeStyle;rounded=0;orthogonalLoop=1;jettySize=auto;html=1;exitX=0.5;exitY=1;exitDx=0;exitDy=0;endArrow=none;endFill=0;curved=1;" edge="1" parent="1" source="yIZ_W_vqHQh3KndWrSQR-78" target="x2GnNRhoElomt2OgKQ6f-43">
          <mxGeometry relative="1" as="geometry" />
        </mxCell>
        <mxCell id="uZsumO2O-Ix8cj6PFFoW-31" style="edgeStyle=orthogonalEdgeStyle;rounded=0;orthogonalLoop=1;jettySize=auto;html=1;exitX=0.5;exitY=1;exitDx=0;exitDy=0;entryX=0.5;entryY=0;entryDx=0;entryDy=0;endArrow=none;endFill=0;curved=1;" edge="1" parent="1" source="yIZ_W_vqHQh3KndWrSQR-78" target="x2GnNRhoElomt2OgKQ6f-41">
          <mxGeometry relative="1" as="geometry" />
        </mxCell>
        <mxCell id="uZsumO2O-Ix8cj6PFFoW-32" style="edgeStyle=orthogonalEdgeStyle;rounded=0;orthogonalLoop=1;jettySize=auto;html=1;exitX=0.5;exitY=1;exitDx=0;exitDy=0;entryX=0.5;entryY=0;entryDx=0;entryDy=0;endArrow=none;endFill=0;curved=1;" edge="1" parent="1" source="yIZ_W_vqHQh3KndWrSQR-78" target="x2GnNRhoElomt2OgKQ6f-37">
          <mxGeometry relative="1" as="geometry" />
        </mxCell>
        <mxCell id="uZsumO2O-Ix8cj6PFFoW-33" style="edgeStyle=orthogonalEdgeStyle;rounded=0;orthogonalLoop=1;jettySize=auto;html=1;exitX=0.5;exitY=1;exitDx=0;exitDy=0;entryX=0.5;entryY=0;entryDx=0;entryDy=0;endArrow=none;endFill=0;curved=1;" edge="1" parent="1" source="yIZ_W_vqHQh3KndWrSQR-78" target="x2GnNRhoElomt2OgKQ6f-35">
          <mxGeometry relative="1" as="geometry" />
        </mxCell>
        <mxCell id="uZsumO2O-Ix8cj6PFFoW-34" style="edgeStyle=orthogonalEdgeStyle;rounded=0;orthogonalLoop=1;jettySize=auto;html=1;exitX=0.5;exitY=1;exitDx=0;exitDy=0;entryX=0.5;entryY=0;entryDx=0;entryDy=0;endArrow=none;endFill=0;curved=1;" edge="1" parent="1" source="yIZ_W_vqHQh3KndWrSQR-78" target="x2GnNRhoElomt2OgKQ6f-33">
          <mxGeometry relative="1" as="geometry" />
        </mxCell>
        <mxCell id="uZsumO2O-Ix8cj6PFFoW-35" style="edgeStyle=orthogonalEdgeStyle;rounded=0;orthogonalLoop=1;jettySize=auto;html=1;exitX=0.5;exitY=1;exitDx=0;exitDy=0;entryX=0.5;entryY=0;entryDx=0;entryDy=0;endArrow=none;endFill=0;curved=1;" edge="1" parent="1" source="yIZ_W_vqHQh3KndWrSQR-78" target="x2GnNRhoElomt2OgKQ6f-31">
          <mxGeometry relative="1" as="geometry" />
        </mxCell>
        <mxCell id="yIZ_W_vqHQh3KndWrSQR-78" value="Отель" style="rounded=0;whiteSpace=wrap;html=1;" parent="1" vertex="1">
          <mxGeometry x="160" y="830" width="120" height="60" as="geometry" />
        </mxCell>
        <mxCell id="uZsumO2O-Ix8cj6PFFoW-53" style="edgeStyle=orthogonalEdgeStyle;rounded=0;orthogonalLoop=1;jettySize=auto;html=1;exitX=1;exitY=0.5;exitDx=0;exitDy=0;entryX=0;entryY=0.5;entryDx=0;entryDy=0;endArrow=none;endFill=0;curved=1;" edge="1" parent="1" source="yIZ_W_vqHQh3KndWrSQR-79" target="x2GnNRhoElomt2OgKQ6f-46">
          <mxGeometry relative="1" as="geometry" />
        </mxCell>
        <mxCell id="uZsumO2O-Ix8cj6PFFoW-55" style="edgeStyle=orthogonalEdgeStyle;rounded=0;orthogonalLoop=1;jettySize=auto;html=1;exitX=1;exitY=0.5;exitDx=0;exitDy=0;entryX=0;entryY=0.5;entryDx=0;entryDy=0;endArrow=none;endFill=0;curved=1;" edge="1" parent="1" source="yIZ_W_vqHQh3KndWrSQR-79" target="x2GnNRhoElomt2OgKQ6f-48">
          <mxGeometry relative="1" as="geometry" />
        </mxCell>
        <mxCell id="uZsumO2O-Ix8cj6PFFoW-56" style="edgeStyle=orthogonalEdgeStyle;rounded=0;orthogonalLoop=1;jettySize=auto;html=1;exitX=1;exitY=0.5;exitDx=0;exitDy=0;entryX=0;entryY=0.5;entryDx=0;entryDy=0;endArrow=none;endFill=0;curved=1;" edge="1" parent="1" source="yIZ_W_vqHQh3KndWrSQR-79" target="x2GnNRhoElomt2OgKQ6f-51">
          <mxGeometry relative="1" as="geometry" />
        </mxCell>
        <mxCell id="yIZ_W_vqHQh3KndWrSQR-79" value="Тип тура" style="rounded=0;whiteSpace=wrap;html=1;" parent="1" vertex="1">
          <mxGeometry x="580" y="388" width="120" height="60" as="geometry" />
        </mxCell>
        <mxCell id="uZsumO2O-Ix8cj6PFFoW-46" style="edgeStyle=orthogonalEdgeStyle;rounded=0;orthogonalLoop=1;jettySize=auto;html=1;exitX=1;exitY=0.5;exitDx=0;exitDy=0;entryX=0.5;entryY=1;entryDx=0;entryDy=0;endArrow=none;endFill=0;curved=1;" edge="1" parent="1" source="yIZ_W_vqHQh3KndWrSQR-80" target="x2GnNRhoElomt2OgKQ6f-53">
          <mxGeometry relative="1" as="geometry" />
        </mxCell>
        <mxCell id="uZsumO2O-Ix8cj6PFFoW-47" style="edgeStyle=orthogonalEdgeStyle;rounded=0;orthogonalLoop=1;jettySize=auto;html=1;exitX=1;exitY=0.5;exitDx=0;exitDy=0;entryX=0.5;entryY=1;entryDx=0;entryDy=0;endArrow=none;endFill=0;curved=1;" edge="1" parent="1" source="yIZ_W_vqHQh3KndWrSQR-80" target="x2GnNRhoElomt2OgKQ6f-57">
          <mxGeometry relative="1" as="geometry" />
        </mxCell>
        <mxCell id="uZsumO2O-Ix8cj6PFFoW-48" style="edgeStyle=orthogonalEdgeStyle;rounded=0;orthogonalLoop=1;jettySize=auto;html=1;exitX=1;exitY=0.5;exitDx=0;exitDy=0;entryX=0.5;entryY=1;entryDx=0;entryDy=0;endArrow=none;endFill=0;curved=1;" edge="1" parent="1" source="yIZ_W_vqHQh3KndWrSQR-80" target="x2GnNRhoElomt2OgKQ6f-68">
          <mxGeometry relative="1" as="geometry" />
        </mxCell>
        <mxCell id="uZsumO2O-Ix8cj6PFFoW-49" style="edgeStyle=orthogonalEdgeStyle;rounded=0;orthogonalLoop=1;jettySize=auto;html=1;exitX=1;exitY=0.5;exitDx=0;exitDy=0;entryX=0.5;entryY=1;entryDx=0;entryDy=0;endArrow=none;endFill=0;curved=1;" edge="1" parent="1" source="yIZ_W_vqHQh3KndWrSQR-80" target="x2GnNRhoElomt2OgKQ6f-67">
          <mxGeometry relative="1" as="geometry" />
        </mxCell>
        <mxCell id="uZsumO2O-Ix8cj6PFFoW-50" style="edgeStyle=orthogonalEdgeStyle;rounded=0;orthogonalLoop=1;jettySize=auto;html=1;exitX=1;exitY=0.5;exitDx=0;exitDy=0;entryX=0.5;entryY=0;entryDx=0;entryDy=0;endArrow=none;endFill=0;curved=1;" edge="1" parent="1" source="yIZ_W_vqHQh3KndWrSQR-80" target="x2GnNRhoElomt2OgKQ6f-71">
          <mxGeometry relative="1" as="geometry" />
        </mxCell>
        <mxCell id="uZsumO2O-Ix8cj6PFFoW-51" style="edgeStyle=orthogonalEdgeStyle;rounded=0;orthogonalLoop=1;jettySize=auto;html=1;exitX=1;exitY=0.5;exitDx=0;exitDy=0;entryX=0.5;entryY=0;entryDx=0;entryDy=0;endArrow=none;endFill=0;curved=1;" edge="1" parent="1" source="yIZ_W_vqHQh3KndWrSQR-80" target="x2GnNRhoElomt2OgKQ6f-70">
          <mxGeometry relative="1" as="geometry" />
        </mxCell>
        <mxCell id="uZsumO2O-Ix8cj6PFFoW-52" style="edgeStyle=orthogonalEdgeStyle;rounded=0;orthogonalLoop=1;jettySize=auto;html=1;exitX=1;exitY=0.5;exitDx=0;exitDy=0;entryX=0.5;entryY=0;entryDx=0;entryDy=0;endArrow=none;endFill=0;curved=1;" edge="1" parent="1" source="yIZ_W_vqHQh3KndWrSQR-80" target="x2GnNRhoElomt2OgKQ6f-69">
          <mxGeometry relative="1" as="geometry" />
        </mxCell>
        <mxCell id="yIZ_W_vqHQh3KndWrSQR-80" value="Тур" style="rounded=0;whiteSpace=wrap;html=1;" parent="1" vertex="1">
          <mxGeometry x="580" y="570" width="120" height="60" as="geometry" />
        </mxCell>
        <mxCell id="uZsumO2O-Ix8cj6PFFoW-67" style="edgeStyle=orthogonalEdgeStyle;rounded=0;orthogonalLoop=1;jettySize=auto;html=1;exitX=1;exitY=0.5;exitDx=0;exitDy=0;entryX=0.5;entryY=0;entryDx=0;entryDy=0;endArrow=none;endFill=0;curved=1;" edge="1" parent="1" source="yIZ_W_vqHQh3KndWrSQR-81" target="x2GnNRhoElomt2OgKQ6f-113">
          <mxGeometry relative="1" as="geometry" />
        </mxCell>
        <mxCell id="uZsumO2O-Ix8cj6PFFoW-68" style="edgeStyle=orthogonalEdgeStyle;rounded=0;orthogonalLoop=1;jettySize=auto;html=1;exitX=1;exitY=0.5;exitDx=0;exitDy=0;entryX=0.5;entryY=0;entryDx=0;entryDy=0;endArrow=none;endFill=0;curved=1;" edge="1" parent="1" source="yIZ_W_vqHQh3KndWrSQR-81" target="x2GnNRhoElomt2OgKQ6f-112">
          <mxGeometry relative="1" as="geometry" />
        </mxCell>
        <mxCell id="uZsumO2O-Ix8cj6PFFoW-69" style="edgeStyle=orthogonalEdgeStyle;rounded=0;orthogonalLoop=1;jettySize=auto;html=1;exitX=1;exitY=0.5;exitDx=0;exitDy=0;entryX=0.5;entryY=1;entryDx=0;entryDy=0;endArrow=none;endFill=0;curved=1;" edge="1" parent="1" source="yIZ_W_vqHQh3KndWrSQR-81" target="x2GnNRhoElomt2OgKQ6f-104">
          <mxGeometry relative="1" as="geometry" />
        </mxCell>
        <mxCell id="uZsumO2O-Ix8cj6PFFoW-70" style="edgeStyle=orthogonalEdgeStyle;rounded=0;orthogonalLoop=1;jettySize=auto;html=1;exitX=1;exitY=0.5;exitDx=0;exitDy=0;entryX=0.5;entryY=1;entryDx=0;entryDy=0;endArrow=none;endFill=0;curved=1;" edge="1" parent="1" source="yIZ_W_vqHQh3KndWrSQR-81" target="x2GnNRhoElomt2OgKQ6f-109">
          <mxGeometry relative="1" as="geometry" />
        </mxCell>
        <mxCell id="uZsumO2O-Ix8cj6PFFoW-71" style="edgeStyle=orthogonalEdgeStyle;rounded=0;orthogonalLoop=1;jettySize=auto;html=1;exitX=1;exitY=0.5;exitDx=0;exitDy=0;entryX=0.5;entryY=1;entryDx=0;entryDy=0;endArrow=none;endFill=0;curved=1;" edge="1" parent="1" source="yIZ_W_vqHQh3KndWrSQR-81" target="x2GnNRhoElomt2OgKQ6f-110">
          <mxGeometry relative="1" as="geometry" />
        </mxCell>
        <mxCell id="yIZ_W_vqHQh3KndWrSQR-81" value="Бронирование" style="rounded=0;whiteSpace=wrap;html=1;" parent="1" vertex="1">
          <mxGeometry x="575" y="168" width="120" height="60" as="geometry" />
        </mxCell>
        <mxCell id="uZsumO2O-Ix8cj6PFFoW-57" style="edgeStyle=orthogonalEdgeStyle;rounded=0;orthogonalLoop=1;jettySize=auto;html=1;exitX=1;exitY=0.5;exitDx=0;exitDy=0;entryX=0.5;entryY=1;entryDx=0;entryDy=0;endArrow=none;endFill=0;curved=1;" edge="1" parent="1" source="yIZ_W_vqHQh3KndWrSQR-82" target="x2GnNRhoElomt2OgKQ6f-122">
          <mxGeometry relative="1" as="geometry" />
        </mxCell>
        <mxCell id="uZsumO2O-Ix8cj6PFFoW-58" style="edgeStyle=orthogonalEdgeStyle;rounded=0;orthogonalLoop=1;jettySize=auto;html=1;exitX=1;exitY=0.5;exitDx=0;exitDy=0;entryX=0.5;entryY=1;entryDx=0;entryDy=0;endArrow=none;endFill=0;curved=1;" edge="1" parent="1" source="yIZ_W_vqHQh3KndWrSQR-82" target="x2GnNRhoElomt2OgKQ6f-124">
          <mxGeometry relative="1" as="geometry" />
        </mxCell>
        <mxCell id="uZsumO2O-Ix8cj6PFFoW-60" style="edgeStyle=orthogonalEdgeStyle;rounded=0;orthogonalLoop=1;jettySize=auto;html=1;exitX=1;exitY=0.5;exitDx=0;exitDy=0;entryX=0.5;entryY=1;entryDx=0;entryDy=0;endArrow=none;endFill=0;curved=1;" edge="1" parent="1" source="yIZ_W_vqHQh3KndWrSQR-82" target="x2GnNRhoElomt2OgKQ6f-125">
          <mxGeometry relative="1" as="geometry" />
        </mxCell>
        <mxCell id="uZsumO2O-Ix8cj6PFFoW-64" style="edgeStyle=orthogonalEdgeStyle;rounded=0;orthogonalLoop=1;jettySize=auto;html=1;exitX=1;exitY=0.5;exitDx=0;exitDy=0;entryX=0.5;entryY=0;entryDx=0;entryDy=0;endArrow=none;endFill=0;curved=1;" edge="1" parent="1" source="yIZ_W_vqHQh3KndWrSQR-82" target="x2GnNRhoElomt2OgKQ6f-127">
          <mxGeometry relative="1" as="geometry" />
        </mxCell>
        <mxCell id="uZsumO2O-Ix8cj6PFFoW-65" style="edgeStyle=orthogonalEdgeStyle;rounded=0;orthogonalLoop=1;jettySize=auto;html=1;exitX=1;exitY=0.5;exitDx=0;exitDy=0;entryX=0.5;entryY=0;entryDx=0;entryDy=0;endArrow=none;endFill=0;curved=1;" edge="1" parent="1" source="yIZ_W_vqHQh3KndWrSQR-82" target="x2GnNRhoElomt2OgKQ6f-126">
          <mxGeometry relative="1" as="geometry" />
        </mxCell>
        <mxCell id="yIZ_W_vqHQh3KndWrSQR-82" value="Оплата" style="rounded=0;whiteSpace=wrap;html=1;" parent="1" vertex="1">
          <mxGeometry x="585" y="305" width="120" height="60" as="geometry" />
        </mxCell>
        <mxCell id="uZsumO2O-Ix8cj6PFFoW-36" style="edgeStyle=orthogonalEdgeStyle;rounded=0;orthogonalLoop=1;jettySize=auto;html=1;exitX=0.5;exitY=1;exitDx=0;exitDy=0;entryX=1;entryY=0.5;entryDx=0;entryDy=0;endArrow=none;endFill=0;curved=1;" edge="1" parent="1" source="yIZ_W_vqHQh3KndWrSQR-83" target="x2GnNRhoElomt2OgKQ6f-78">
          <mxGeometry relative="1" as="geometry" />
        </mxCell>
        <mxCell id="uZsumO2O-Ix8cj6PFFoW-37" style="edgeStyle=orthogonalEdgeStyle;rounded=0;orthogonalLoop=1;jettySize=auto;html=1;exitX=0.5;exitY=1;exitDx=0;exitDy=0;entryX=1;entryY=0.5;entryDx=0;entryDy=0;endArrow=none;endFill=0;curved=1;" edge="1" parent="1" source="yIZ_W_vqHQh3KndWrSQR-83" target="x2GnNRhoElomt2OgKQ6f-85">
          <mxGeometry relative="1" as="geometry" />
        </mxCell>
        <mxCell id="uZsumO2O-Ix8cj6PFFoW-38" style="edgeStyle=orthogonalEdgeStyle;rounded=0;orthogonalLoop=1;jettySize=auto;html=1;exitX=0.5;exitY=1;exitDx=0;exitDy=0;entryX=1;entryY=0.5;entryDx=0;entryDy=0;endArrow=none;endFill=0;curved=1;" edge="1" parent="1" source="yIZ_W_vqHQh3KndWrSQR-83" target="x2GnNRhoElomt2OgKQ6f-87">
          <mxGeometry relative="1" as="geometry" />
        </mxCell>
        <mxCell id="uZsumO2O-Ix8cj6PFFoW-39" style="edgeStyle=orthogonalEdgeStyle;rounded=0;orthogonalLoop=1;jettySize=auto;html=1;exitX=0.5;exitY=1;exitDx=0;exitDy=0;entryX=1;entryY=0.5;entryDx=0;entryDy=0;endArrow=none;endFill=0;curved=1;" edge="1" parent="1" source="yIZ_W_vqHQh3KndWrSQR-83" target="x2GnNRhoElomt2OgKQ6f-88">
          <mxGeometry relative="1" as="geometry" />
        </mxCell>
        <mxCell id="uZsumO2O-Ix8cj6PFFoW-40" style="edgeStyle=orthogonalEdgeStyle;rounded=0;orthogonalLoop=1;jettySize=auto;html=1;exitX=0.5;exitY=1;exitDx=0;exitDy=0;entryX=1;entryY=0.5;entryDx=0;entryDy=0;endArrow=none;endFill=0;curved=1;" edge="1" parent="1" source="yIZ_W_vqHQh3KndWrSQR-83" target="x2GnNRhoElomt2OgKQ6f-89">
          <mxGeometry relative="1" as="geometry" />
        </mxCell>
        <mxCell id="uZsumO2O-Ix8cj6PFFoW-41" style="edgeStyle=orthogonalEdgeStyle;rounded=0;orthogonalLoop=1;jettySize=auto;html=1;exitX=0.5;exitY=1;exitDx=0;exitDy=0;entryX=0;entryY=0.5;entryDx=0;entryDy=0;endArrow=none;endFill=0;curved=1;" edge="1" parent="1" source="yIZ_W_vqHQh3KndWrSQR-83" target="x2GnNRhoElomt2OgKQ6f-92">
          <mxGeometry relative="1" as="geometry" />
        </mxCell>
        <mxCell id="uZsumO2O-Ix8cj6PFFoW-42" style="edgeStyle=orthogonalEdgeStyle;rounded=0;orthogonalLoop=1;jettySize=auto;html=1;exitX=0.5;exitY=1;exitDx=0;exitDy=0;entryX=0;entryY=0.5;entryDx=0;entryDy=0;endArrow=none;endFill=0;curved=1;" edge="1" parent="1" source="yIZ_W_vqHQh3KndWrSQR-83" target="x2GnNRhoElomt2OgKQ6f-90">
          <mxGeometry relative="1" as="geometry" />
        </mxCell>
        <mxCell id="uZsumO2O-Ix8cj6PFFoW-43" style="edgeStyle=orthogonalEdgeStyle;rounded=0;orthogonalLoop=1;jettySize=auto;html=1;exitX=0.5;exitY=1;exitDx=0;exitDy=0;entryX=0;entryY=0.5;entryDx=0;entryDy=0;endArrow=none;endFill=0;curved=1;" edge="1" parent="1" source="yIZ_W_vqHQh3KndWrSQR-83" target="x2GnNRhoElomt2OgKQ6f-94">
          <mxGeometry relative="1" as="geometry" />
        </mxCell>
        <mxCell id="uZsumO2O-Ix8cj6PFFoW-44" style="edgeStyle=orthogonalEdgeStyle;rounded=0;orthogonalLoop=1;jettySize=auto;html=1;exitX=0.5;exitY=1;exitDx=0;exitDy=0;entryX=0;entryY=0.5;entryDx=0;entryDy=0;endArrow=none;endFill=0;curved=1;" edge="1" parent="1" source="yIZ_W_vqHQh3KndWrSQR-83" target="x2GnNRhoElomt2OgKQ6f-93">
          <mxGeometry relative="1" as="geometry" />
        </mxCell>
        <mxCell id="uZsumO2O-Ix8cj6PFFoW-45" style="edgeStyle=orthogonalEdgeStyle;rounded=0;orthogonalLoop=1;jettySize=auto;html=1;exitX=0.5;exitY=1;exitDx=0;exitDy=0;entryX=0;entryY=0.5;entryDx=0;entryDy=0;endArrow=none;endFill=0;curved=1;" edge="1" parent="1" source="yIZ_W_vqHQh3KndWrSQR-83" target="x2GnNRhoElomt2OgKQ6f-95">
          <mxGeometry relative="1" as="geometry" />
        </mxCell>
        <mxCell id="yIZ_W_vqHQh3KndWrSQR-83" value="Авиаперелеты" style="rounded=0;whiteSpace=wrap;html=1;" parent="1" vertex="1">
          <mxGeometry x="825" y="757" width="120" height="60" as="geometry" />
        </mxCell>
        <mxCell id="yIZ_W_vqHQh3KndWrSQR-84" value="Содержит" style="rhombus;whiteSpace=wrap;html=1;" parent="1" vertex="1">
          <mxGeometry x="180" y="520" width="80" height="80" as="geometry" />
        </mxCell>
        <mxCell id="yIZ_W_vqHQh3KndWrSQR-85" value="" style="endArrow=none;html=1;rounded=0;exitX=0.5;exitY=0;exitDx=0;exitDy=0;" parent="1" source="yIZ_W_vqHQh3KndWrSQR-84" edge="1">
          <mxGeometry width="50" height="50" relative="1" as="geometry">
            <mxPoint x="170" y="550" as="sourcePoint" />
            <mxPoint x="220" y="500" as="targetPoint" />
          </mxGeometry>
        </mxCell>
        <mxCell id="yIZ_W_vqHQh3KndWrSQR-86" value="" style="endArrow=none;html=1;rounded=0;" parent="1" source="yIZ_W_vqHQh3KndWrSQR-77" edge="1">
          <mxGeometry width="50" height="50" relative="1" as="geometry">
            <mxPoint x="170" y="650" as="sourcePoint" />
            <mxPoint x="220" y="600" as="targetPoint" />
          </mxGeometry>
        </mxCell>
        <mxCell id="yIZ_W_vqHQh3KndWrSQR-87" value="" style="endArrow=none;html=1;rounded=1;exitX=0;exitY=0.5;exitDx=0;exitDy=0;entryX=0.75;entryY=1;entryDx=0;entryDy=0;curved=0;" parent="1" source="yIZ_W_vqHQh3KndWrSQR-88" target="yIZ_W_vqHQh3KndWrSQR-80" edge="1">
          <mxGeometry width="50" height="50" relative="1" as="geometry">
            <mxPoint x="640" y="520" as="sourcePoint" />
            <mxPoint x="640" y="540" as="targetPoint" />
            <Array as="points">
              <mxPoint x="674" y="714" />
            </Array>
          </mxGeometry>
        </mxCell>
        <mxCell id="yIZ_W_vqHQh3KndWrSQR-88" value="Включает" style="rhombus;whiteSpace=wrap;html=1;" parent="1" vertex="1">
          <mxGeometry x="705" y="674" width="80" height="80" as="geometry" />
        </mxCell>
        <mxCell id="yIZ_W_vqHQh3KndWrSQR-89" value="" style="endArrow=none;html=1;rounded=1;exitX=0;exitY=0.5;exitDx=0;exitDy=0;entryX=1;entryY=0.5;entryDx=0;entryDy=0;curved=0;" parent="1" source="yIZ_W_vqHQh3KndWrSQR-83" target="yIZ_W_vqHQh3KndWrSQR-88" edge="1">
          <mxGeometry width="50" height="50" relative="1" as="geometry">
            <mxPoint x="640" y="680" as="sourcePoint" />
            <mxPoint x="640" y="660" as="targetPoint" />
            <Array as="points">
              <mxPoint x="807" y="788" />
              <mxPoint x="806" y="714" />
            </Array>
          </mxGeometry>
        </mxCell>
        <mxCell id="yIZ_W_vqHQh3KndWrSQR-90" value="Совершает" style="rhombus;whiteSpace=wrap;html=1;" parent="1" vertex="1">
          <mxGeometry x="360" y="260" width="80" height="80" as="geometry" />
        </mxCell>
        <mxCell id="yIZ_W_vqHQh3KndWrSQR-92" value="" style="endArrow=none;html=1;rounded=1;exitX=1;exitY=0.5;exitDx=0;exitDy=0;curved=0;" parent="1" source="yIZ_W_vqHQh3KndWrSQR-75" edge="1">
          <mxGeometry width="50" height="50" relative="1" as="geometry">
            <mxPoint x="230" y="420" as="sourcePoint" />
            <mxPoint x="280" y="370" as="targetPoint" />
            <Array as="points">
              <mxPoint x="280" y="370" />
            </Array>
          </mxGeometry>
        </mxCell>
        <mxCell id="yIZ_W_vqHQh3KndWrSQR-95" value="" style="endArrow=none;html=1;rounded=0;" parent="1" edge="1">
          <mxGeometry width="50" height="50" relative="1" as="geometry">
            <mxPoint x="220" y="160" as="sourcePoint" />
            <mxPoint x="220" y="140" as="targetPoint" />
          </mxGeometry>
        </mxCell>
        <mxCell id="yIZ_W_vqHQh3KndWrSQR-96" value="Имеет" style="rhombus;whiteSpace=wrap;html=1;" parent="1" vertex="1">
          <mxGeometry x="180" y="150" width="80" height="80" as="geometry" />
        </mxCell>
        <mxCell id="yIZ_W_vqHQh3KndWrSQR-97" value="" style="endArrow=none;html=1;rounded=0;exitX=0.5;exitY=0;exitDx=0;exitDy=0;entryX=0.5;entryY=1;entryDx=0;entryDy=0;" parent="1" source="yIZ_W_vqHQh3KndWrSQR-74" target="yIZ_W_vqHQh3KndWrSQR-96" edge="1">
          <mxGeometry width="50" height="50" relative="1" as="geometry">
            <mxPoint x="170" y="290" as="sourcePoint" />
            <mxPoint x="220" y="240" as="targetPoint" />
          </mxGeometry>
        </mxCell>
        <mxCell id="yIZ_W_vqHQh3KndWrSQR-100" value="Относится&lt;div&gt;к&lt;/div&gt;" style="rhombus;whiteSpace=wrap;html=1;" parent="1" vertex="1">
          <mxGeometry x="590" y="460" width="100" height="80" as="geometry" />
        </mxCell>
        <mxCell id="yIZ_W_vqHQh3KndWrSQR-101" value="" style="endArrow=none;html=1;rounded=0;exitX=0.5;exitY=0;exitDx=0;exitDy=0;entryX=0.5;entryY=1;entryDx=0;entryDy=0;" parent="1" target="yIZ_W_vqHQh3KndWrSQR-79" edge="1">
          <mxGeometry width="50" height="50" relative="1" as="geometry">
            <mxPoint x="640.06" y="460" as="sourcePoint" />
            <mxPoint x="639.9399999999999" y="442.76" as="targetPoint" />
            <Array as="points" />
          </mxGeometry>
        </mxCell>
        <mxCell id="yIZ_W_vqHQh3KndWrSQR-102" value="" style="endArrow=none;html=1;rounded=0;entryX=0.5;entryY=1;entryDx=0;entryDy=0;exitX=0.5;exitY=0;exitDx=0;exitDy=0;" parent="1" source="yIZ_W_vqHQh3KndWrSQR-80" target="yIZ_W_vqHQh3KndWrSQR-100" edge="1">
          <mxGeometry width="50" height="50" relative="1" as="geometry">
            <mxPoint x="641" y="560" as="sourcePoint" />
            <mxPoint x="641" y="540" as="targetPoint" />
          </mxGeometry>
        </mxCell>
        <mxCell id="yIZ_W_vqHQh3KndWrSQR-103" value="Проводится" style="rhombus;whiteSpace=wrap;html=1;" parent="1" vertex="1">
          <mxGeometry x="390" y="480" width="80" height="80" as="geometry" />
        </mxCell>
        <mxCell id="yIZ_W_vqHQh3KndWrSQR-104" value="" style="endArrow=none;html=1;rounded=1;curved=0;exitX=1;exitY=0.5;exitDx=0;exitDy=0;entryX=0;entryY=0.5;entryDx=0;entryDy=0;" parent="1" source="yIZ_W_vqHQh3KndWrSQR-103" target="yIZ_W_vqHQh3KndWrSQR-80" edge="1">
          <mxGeometry width="50" height="50" relative="1" as="geometry">
            <mxPoint x="480" y="520" as="sourcePoint" />
            <mxPoint x="580" y="580" as="targetPoint" />
            <Array as="points">
              <mxPoint x="520" y="520" />
              <mxPoint x="520" y="600" />
            </Array>
          </mxGeometry>
        </mxCell>
        <mxCell id="yIZ_W_vqHQh3KndWrSQR-105" value="" style="endArrow=none;html=1;rounded=1;curved=0;entryX=0;entryY=0.5;entryDx=0;entryDy=0;exitX=1;exitY=0.5;exitDx=0;exitDy=0;" parent="1" source="yIZ_W_vqHQh3KndWrSQR-76" target="yIZ_W_vqHQh3KndWrSQR-103" edge="1">
          <mxGeometry width="50" height="50" relative="1" as="geometry">
            <mxPoint x="290" y="470" as="sourcePoint" />
            <mxPoint x="380" y="520" as="targetPoint" />
            <Array as="points">
              <mxPoint x="320" y="470" />
              <mxPoint x="320" y="520" />
            </Array>
          </mxGeometry>
        </mxCell>
        <mxCell id="yIZ_W_vqHQh3KndWrSQR-106" value="Включает" style="rhombus;whiteSpace=wrap;html=1;" parent="1" vertex="1">
          <mxGeometry x="380" y="610" width="80" height="80" as="geometry" />
        </mxCell>
        <mxCell id="yIZ_W_vqHQh3KndWrSQR-107" value="" style="endArrow=none;html=1;rounded=1;exitX=1;exitY=0.5;exitDx=0;exitDy=0;curved=0;entryX=-0.002;entryY=0.655;entryDx=0;entryDy=0;entryPerimeter=0;" parent="1" source="yIZ_W_vqHQh3KndWrSQR-106" target="yIZ_W_vqHQh3KndWrSQR-80" edge="1">
          <mxGeometry width="50" height="50" relative="1" as="geometry">
            <mxPoint x="530" y="650" as="sourcePoint" />
            <mxPoint x="580" y="600" as="targetPoint" />
            <Array as="points">
              <mxPoint x="500" y="650" />
              <mxPoint x="530" y="650" />
              <mxPoint x="530" y="609" />
            </Array>
          </mxGeometry>
        </mxCell>
        <mxCell id="yIZ_W_vqHQh3KndWrSQR-109" value="" style="endArrow=none;html=1;rounded=1;entryX=0;entryY=0.5;entryDx=0;entryDy=0;curved=0;" parent="1" target="yIZ_W_vqHQh3KndWrSQR-106" edge="1">
          <mxGeometry width="50" height="50" relative="1" as="geometry">
            <mxPoint x="280" y="680" as="sourcePoint" />
            <mxPoint x="330" y="630" as="targetPoint" />
            <Array as="points">
              <mxPoint x="320" y="680" />
              <mxPoint x="320" y="660" />
              <mxPoint x="320" y="650" />
            </Array>
          </mxGeometry>
        </mxCell>
        <mxCell id="yIZ_W_vqHQh3KndWrSQR-110" value="1" style="text;html=1;align=center;verticalAlign=middle;resizable=0;points=[];autosize=1;strokeColor=none;fillColor=none;" parent="1" vertex="1">
          <mxGeometry x="220" y="228" width="30" height="30" as="geometry" />
        </mxCell>
        <mxCell id="yIZ_W_vqHQh3KndWrSQR-112" value="1" style="text;html=1;align=center;verticalAlign=middle;resizable=0;points=[];autosize=1;strokeColor=none;fillColor=none;" parent="1" vertex="1">
          <mxGeometry x="220" y="138" width="30" height="30" as="geometry" />
        </mxCell>
        <mxCell id="yIZ_W_vqHQh3KndWrSQR-113" value="1" style="text;html=1;align=center;verticalAlign=middle;resizable=0;points=[];autosize=1;strokeColor=none;fillColor=none;" parent="1" vertex="1">
          <mxGeometry x="555" y="578" width="30" height="30" as="geometry" />
        </mxCell>
        <mxCell id="yIZ_W_vqHQh3KndWrSQR-114" value="М" style="text;html=1;align=center;verticalAlign=middle;resizable=0;points=[];autosize=1;strokeColor=none;fillColor=none;" parent="1" vertex="1">
          <mxGeometry x="285" y="448" width="30" height="30" as="geometry" />
        </mxCell>
        <mxCell id="yIZ_W_vqHQh3KndWrSQR-116" value="1" style="text;html=1;align=center;verticalAlign=middle;resizable=0;points=[];autosize=1;strokeColor=none;fillColor=none;" parent="1" vertex="1">
          <mxGeometry x="555" y="600" width="30" height="30" as="geometry" />
        </mxCell>
        <mxCell id="yIZ_W_vqHQh3KndWrSQR-117" value="М" style="text;html=1;align=center;verticalAlign=middle;resizable=0;points=[];autosize=1;strokeColor=none;fillColor=none;" parent="1" vertex="1">
          <mxGeometry x="275" y="680" width="30" height="30" as="geometry" />
        </mxCell>
        <mxCell id="yIZ_W_vqHQh3KndWrSQR-119" value="Оформляет" style="rhombus;whiteSpace=wrap;html=1;" parent="1" vertex="1">
          <mxGeometry x="360" y="100" width="80" height="80" as="geometry" />
        </mxCell>
        <mxCell id="yIZ_W_vqHQh3KndWrSQR-120" value="" style="endArrow=none;html=1;rounded=1;entryX=0;entryY=0.5;entryDx=0;entryDy=0;curved=0;" parent="1" target="yIZ_W_vqHQh3KndWrSQR-119" edge="1">
          <mxGeometry width="50" height="50" relative="1" as="geometry">
            <mxPoint x="280" y="120" as="sourcePoint" />
            <mxPoint x="330" y="70" as="targetPoint" />
            <Array as="points">
              <mxPoint x="310" y="120" />
              <mxPoint x="310" y="140" />
            </Array>
          </mxGeometry>
        </mxCell>
        <mxCell id="yIZ_W_vqHQh3KndWrSQR-121" value="" style="endArrow=none;html=1;rounded=1;exitX=1;exitY=0.5;exitDx=0;exitDy=0;entryX=0.469;entryY=0.01;entryDx=0;entryDy=0;curved=0;entryPerimeter=0;" parent="1" target="yIZ_W_vqHQh3KndWrSQR-81" edge="1">
          <mxGeometry width="50" height="50" relative="1" as="geometry">
            <mxPoint x="430" y="140" as="sourcePoint" />
            <mxPoint x="625" y="168" as="targetPoint" />
            <Array as="points">
              <mxPoint x="630" y="140" />
            </Array>
          </mxGeometry>
        </mxCell>
        <mxCell id="yIZ_W_vqHQh3KndWrSQR-122" value="1" style="text;html=1;align=center;verticalAlign=middle;resizable=0;points=[];autosize=1;strokeColor=none;fillColor=none;" parent="1" vertex="1">
          <mxGeometry x="275" y="100" width="30" height="30" as="geometry" />
        </mxCell>
        <mxCell id="yIZ_W_vqHQh3KndWrSQR-125" value="М" style="text;html=1;align=center;verticalAlign=middle;resizable=0;points=[];autosize=1;strokeColor=none;fillColor=none;" parent="1" vertex="1">
          <mxGeometry x="625" y="145" width="30" height="30" as="geometry" />
        </mxCell>
        <mxCell id="yIZ_W_vqHQh3KndWrSQR-126" value="Содержит" style="rhombus;whiteSpace=wrap;html=1;" parent="1" vertex="1">
          <mxGeometry x="180" y="730" width="80" height="80" as="geometry" />
        </mxCell>
        <mxCell id="yIZ_W_vqHQh3KndWrSQR-127" value="" style="endArrow=none;html=1;rounded=0;exitX=0.5;exitY=0;exitDx=0;exitDy=0;" parent="1" source="yIZ_W_vqHQh3KndWrSQR-126" edge="1">
          <mxGeometry width="50" height="50" relative="1" as="geometry">
            <mxPoint x="170" y="760" as="sourcePoint" />
            <mxPoint x="220" y="710" as="targetPoint" />
          </mxGeometry>
        </mxCell>
        <mxCell id="yIZ_W_vqHQh3KndWrSQR-128" value="" style="endArrow=none;html=1;rounded=0;exitX=0.5;exitY=0;exitDx=0;exitDy=0;" parent="1" source="yIZ_W_vqHQh3KndWrSQR-78" edge="1">
          <mxGeometry width="50" height="50" relative="1" as="geometry">
            <mxPoint x="170" y="860" as="sourcePoint" />
            <mxPoint x="220" y="810" as="targetPoint" />
          </mxGeometry>
        </mxCell>
        <mxCell id="yIZ_W_vqHQh3KndWrSQR-129" value="1" style="text;html=1;align=center;verticalAlign=middle;resizable=0;points=[];autosize=1;strokeColor=none;fillColor=none;" parent="1" vertex="1">
          <mxGeometry x="185" y="708" width="30" height="30" as="geometry" />
        </mxCell>
        <mxCell id="yIZ_W_vqHQh3KndWrSQR-132" value="М" style="text;html=1;align=center;verticalAlign=middle;resizable=0;points=[];autosize=1;strokeColor=none;fillColor=none;" parent="1" vertex="1">
          <mxGeometry x="185" y="808" width="30" height="30" as="geometry" />
        </mxCell>
        <mxCell id="yIZ_W_vqHQh3KndWrSQR-133" value="1" style="text;html=1;align=center;verticalAlign=middle;resizable=0;points=[];autosize=1;strokeColor=none;fillColor=none;" parent="1" vertex="1">
          <mxGeometry x="195" y="498" width="30" height="30" as="geometry" />
        </mxCell>
        <mxCell id="yIZ_W_vqHQh3KndWrSQR-134" value="М" style="text;html=1;align=center;verticalAlign=middle;resizable=0;points=[];autosize=1;strokeColor=none;fillColor=none;" parent="1" vertex="1">
          <mxGeometry x="195" y="618" width="30" height="30" as="geometry" />
        </mxCell>
        <mxCell id="yIZ_W_vqHQh3KndWrSQR-135" value="1" style="text;html=1;align=center;verticalAlign=middle;resizable=0;points=[];autosize=1;strokeColor=none;fillColor=none;" parent="1" vertex="1">
          <mxGeometry x="645" y="628" width="30" height="30" as="geometry" />
        </mxCell>
        <mxCell id="yIZ_W_vqHQh3KndWrSQR-136" value="М" style="text;html=1;align=center;verticalAlign=middle;resizable=0;points=[];autosize=1;strokeColor=none;fillColor=none;" parent="1" vertex="1">
          <mxGeometry x="802" y="761" width="30" height="30" as="geometry" />
        </mxCell>
        <mxCell id="yIZ_W_vqHQh3KndWrSQR-142" value="" style="endArrow=none;html=1;rounded=1;exitX=1;exitY=0.5;exitDx=0;exitDy=0;entryX=0;entryY=0.5;entryDx=0;entryDy=0;curved=0;" parent="1" source="yIZ_W_vqHQh3KndWrSQR-90" target="yIZ_W_vqHQh3KndWrSQR-81" edge="1">
          <mxGeometry width="50" height="50" relative="1" as="geometry">
            <mxPoint x="450" y="300" as="sourcePoint" />
            <mxPoint x="500" y="250" as="targetPoint" />
            <Array as="points">
              <mxPoint x="480" y="300" />
              <mxPoint x="480" y="198" />
            </Array>
          </mxGeometry>
        </mxCell>
        <mxCell id="yIZ_W_vqHQh3KndWrSQR-144" value="" style="endArrow=none;html=1;rounded=1;entryX=0;entryY=0.5;entryDx=0;entryDy=0;curved=0;" parent="1" target="yIZ_W_vqHQh3KndWrSQR-90" edge="1">
          <mxGeometry width="50" height="50" relative="1" as="geometry">
            <mxPoint x="280" y="370" as="sourcePoint" />
            <mxPoint x="330" y="320" as="targetPoint" />
            <Array as="points">
              <mxPoint x="320" y="370" />
              <mxPoint x="320" y="300" />
            </Array>
          </mxGeometry>
        </mxCell>
        <mxCell id="yIZ_W_vqHQh3KndWrSQR-145" value="Содержит" style="rhombus;whiteSpace=wrap;html=1;" parent="1" vertex="1">
          <mxGeometry x="600" y="240" width="80" height="50" as="geometry" />
        </mxCell>
        <mxCell id="yIZ_W_vqHQh3KndWrSQR-146" value="" style="endArrow=none;html=1;rounded=0;entryX=0.542;entryY=1.002;entryDx=0;entryDy=0;entryPerimeter=0;exitX=0.5;exitY=0;exitDx=0;exitDy=0;" parent="1" source="yIZ_W_vqHQh3KndWrSQR-145" target="yIZ_W_vqHQh3KndWrSQR-81" edge="1">
          <mxGeometry width="50" height="50" relative="1" as="geometry">
            <mxPoint x="560" y="350" as="sourcePoint" />
            <mxPoint x="610" y="300" as="targetPoint" />
          </mxGeometry>
        </mxCell>
        <mxCell id="yIZ_W_vqHQh3KndWrSQR-147" value="" style="endArrow=none;html=1;rounded=0;exitX=0.462;exitY=0.005;exitDx=0;exitDy=0;exitPerimeter=0;entryX=0.502;entryY=0.985;entryDx=0;entryDy=0;entryPerimeter=0;" parent="1" source="yIZ_W_vqHQh3KndWrSQR-82" target="yIZ_W_vqHQh3KndWrSQR-145" edge="1">
          <mxGeometry width="50" height="50" relative="1" as="geometry">
            <mxPoint x="590" y="340" as="sourcePoint" />
            <mxPoint x="640" y="300" as="targetPoint" />
          </mxGeometry>
        </mxCell>
        <mxCell id="yIZ_W_vqHQh3KndWrSQR-148" value="1" style="text;html=1;align=center;verticalAlign=middle;resizable=0;points=[];autosize=1;strokeColor=none;fillColor=none;" parent="1" vertex="1">
          <mxGeometry x="630" y="220" width="30" height="30" as="geometry" />
        </mxCell>
        <mxCell id="yIZ_W_vqHQh3KndWrSQR-149" value="1" style="text;html=1;align=center;verticalAlign=middle;resizable=0;points=[];autosize=1;strokeColor=none;fillColor=none;" parent="1" vertex="1">
          <mxGeometry x="635" y="282" width="30" height="30" as="geometry" />
        </mxCell>
        <mxCell id="yIZ_W_vqHQh3KndWrSQR-150" value="Включает" style="rhombus;whiteSpace=wrap;html=1;" parent="1" vertex="1">
          <mxGeometry x="479" y="295" width="80" height="80" as="geometry" />
        </mxCell>
        <mxCell id="yIZ_W_vqHQh3KndWrSQR-154" value="1" style="text;html=1;align=center;verticalAlign=middle;resizable=0;points=[];autosize=1;strokeColor=none;fillColor=none;" parent="1" vertex="1">
          <mxGeometry x="588" y="548" width="30" height="30" as="geometry" />
        </mxCell>
        <mxCell id="yIZ_W_vqHQh3KndWrSQR-155" value="М" style="text;html=1;align=center;verticalAlign=middle;resizable=0;points=[];autosize=1;strokeColor=none;fillColor=none;" parent="1" vertex="1">
          <mxGeometry x="543" y="203" width="30" height="30" as="geometry" />
        </mxCell>
        <mxCell id="yIZ_W_vqHQh3KndWrSQR-156" value="1" style="text;html=1;align=center;verticalAlign=middle;resizable=0;points=[];autosize=1;strokeColor=none;fillColor=none;" parent="1" vertex="1">
          <mxGeometry x="637" y="440" width="30" height="30" as="geometry" />
        </mxCell>
        <mxCell id="yIZ_W_vqHQh3KndWrSQR-157" value="М" style="text;html=1;align=center;verticalAlign=middle;resizable=0;points=[];autosize=1;strokeColor=none;fillColor=none;" parent="1" vertex="1">
          <mxGeometry x="635" y="538" width="30" height="30" as="geometry" />
        </mxCell>
        <mxCell id="yIZ_W_vqHQh3KndWrSQR-158" value="Размещает" style="rhombus;whiteSpace=wrap;html=1;" parent="1" vertex="1">
          <mxGeometry x="540" y="720" width="80" height="80" as="geometry" />
        </mxCell>
        <mxCell id="yIZ_W_vqHQh3KndWrSQR-160" value="" style="endArrow=none;html=1;rounded=1;exitX=1;exitY=0.5;exitDx=0;exitDy=0;entryX=0.5;entryY=1;entryDx=0;entryDy=0;curved=0;" parent="1" source="yIZ_W_vqHQh3KndWrSQR-78" target="yIZ_W_vqHQh3KndWrSQR-158" edge="1">
          <mxGeometry width="50" height="50" relative="1" as="geometry">
            <mxPoint x="350" y="850" as="sourcePoint" />
            <mxPoint x="400" y="800" as="targetPoint" />
            <Array as="points">
              <mxPoint x="580" y="860" />
            </Array>
          </mxGeometry>
        </mxCell>
        <mxCell id="yIZ_W_vqHQh3KndWrSQR-161" value="" style="endArrow=none;html=1;rounded=1;entryX=0.5;entryY=1;entryDx=0;entryDy=0;curved=0;" parent="1" target="yIZ_W_vqHQh3KndWrSQR-80" edge="1">
          <mxGeometry width="50" height="50" relative="1" as="geometry">
            <mxPoint x="580" y="720" as="sourcePoint" />
            <mxPoint x="640" y="650" as="targetPoint" />
            <Array as="points">
              <mxPoint x="580" y="680" />
              <mxPoint x="640" y="680" />
            </Array>
          </mxGeometry>
        </mxCell>
        <mxCell id="yIZ_W_vqHQh3KndWrSQR-162" value="1" style="text;html=1;align=center;verticalAlign=middle;resizable=0;points=[];autosize=1;strokeColor=none;fillColor=none;" parent="1" vertex="1">
          <mxGeometry x="285" y="838" width="30" height="30" as="geometry" />
        </mxCell>
        <mxCell id="yIZ_W_vqHQh3KndWrSQR-165" value="М" style="text;html=1;align=center;verticalAlign=middle;resizable=0;points=[];autosize=1;strokeColor=none;fillColor=none;" parent="1" vertex="1">
          <mxGeometry x="615" y="628" width="30" height="30" as="geometry" />
        </mxCell>
        <mxCell id="yIZ_W_vqHQh3KndWrSQR-167" value="название роли" style="ellipse;whiteSpace=wrap;html=1;align=center;" parent="1" vertex="1">
          <mxGeometry x="-59" y="163" width="100" height="40" as="geometry" />
        </mxCell>
        <mxCell id="yIZ_W_vqHQh3KndWrSQR-168" value="описание" style="ellipse;whiteSpace=wrap;html=1;align=center;" parent="1" vertex="1">
          <mxGeometry x="-67" y="215" width="100" height="40" as="geometry" />
        </mxCell>
        <mxCell id="yIZ_W_vqHQh3KndWrSQR-172" value="id" style="ellipse;whiteSpace=wrap;html=1;align=center;fontStyle=4;" parent="1" vertex="1">
          <mxGeometry x="-55" y="113" width="100" height="40" as="geometry" />
        </mxCell>
        <mxCell id="yIZ_W_vqHQh3KndWrSQR-173" value="права доступа" style="ellipse;whiteSpace=wrap;html=1;align=center;" parent="1" vertex="1">
          <mxGeometry x="-52" y="64" width="100" height="40" as="geometry" />
        </mxCell>
        <mxCell id="yIZ_W_vqHQh3KndWrSQR-181" value="&lt;div&gt;&lt;span style=&quot;background-color: transparent; color: light-dark(rgb(0, 0, 0), rgb(255, 255, 255));&quot;&gt;id&lt;/span&gt;&lt;/div&gt;" style="ellipse;whiteSpace=wrap;html=1;align=center;fontStyle=4;" parent="1" vertex="1">
          <mxGeometry x="48" y="434" width="100" height="40" as="geometry" />
        </mxCell>
        <mxCell id="yIZ_W_vqHQh3KndWrSQR-184" value="Название страны" style="ellipse;whiteSpace=wrap;html=1;align=center;" parent="1" vertex="1">
          <mxGeometry x="45" y="486" width="100" height="40" as="geometry" />
        </mxCell>
        <mxCell id="yIZ_W_vqHQh3KndWrSQR-185" value="Описание" style="ellipse;whiteSpace=wrap;html=1;align=center;" parent="1" vertex="1">
          <mxGeometry x="45" y="544" width="100" height="40" as="geometry" />
        </mxCell>
        <mxCell id="x2GnNRhoElomt2OgKQ6f-1" value="id" style="ellipse;whiteSpace=wrap;html=1;align=center;fontStyle=4;" parent="1" vertex="1">
          <mxGeometry x="-187" y="343" width="100" height="40" as="geometry" />
        </mxCell>
        <mxCell id="x2GnNRhoElomt2OgKQ6f-3" value="имя" style="ellipse;whiteSpace=wrap;html=1;align=center;" parent="1" vertex="1">
          <mxGeometry x="-182" y="394" width="100" height="40" as="geometry" />
        </mxCell>
        <mxCell id="x2GnNRhoElomt2OgKQ6f-5" value="" style="endArrow=none;html=1;rounded=1;exitX=0.5;exitY=0;exitDx=0;exitDy=0;curved=0;" parent="1" source="yIZ_W_vqHQh3KndWrSQR-150" edge="1">
          <mxGeometry width="50" height="50" relative="1" as="geometry">
            <mxPoint x="525" y="256" as="sourcePoint" />
            <mxPoint x="575" y="206" as="targetPoint" />
            <Array as="points">
              <mxPoint x="519" y="206" />
            </Array>
          </mxGeometry>
        </mxCell>
        <mxCell id="x2GnNRhoElomt2OgKQ6f-6" value="" style="endArrow=none;html=1;rounded=1;exitX=0.128;exitY=-0.036;exitDx=0;exitDy=0;exitPerimeter=0;entryX=0.5;entryY=1;entryDx=0;entryDy=0;curved=0;" parent="1" source="yIZ_W_vqHQh3KndWrSQR-80" target="yIZ_W_vqHQh3KndWrSQR-150" edge="1">
          <mxGeometry width="50" height="50" relative="1" as="geometry">
            <mxPoint x="471" y="423" as="sourcePoint" />
            <mxPoint x="521" y="373" as="targetPoint" />
            <Array as="points">
              <mxPoint x="595" y="521" />
              <mxPoint x="523" y="516" />
            </Array>
          </mxGeometry>
        </mxCell>
        <mxCell id="x2GnNRhoElomt2OgKQ6f-8" value="фамилия" style="ellipse;whiteSpace=wrap;html=1;align=center;" parent="1" vertex="1">
          <mxGeometry x="-182" y="438" width="100" height="40" as="geometry" />
        </mxCell>
        <mxCell id="x2GnNRhoElomt2OgKQ6f-15" value="телефон" style="ellipse;whiteSpace=wrap;html=1;align=center;" parent="1" vertex="1">
          <mxGeometry x="-181" y="482" width="100" height="40" as="geometry" />
        </mxCell>
        <mxCell id="x2GnNRhoElomt2OgKQ6f-17" value="серия паспорта" style="ellipse;whiteSpace=wrap;html=1;align=center;" parent="1" vertex="1">
          <mxGeometry x="-185" y="300" width="100" height="40" as="geometry" />
        </mxCell>
        <mxCell id="x2GnNRhoElomt2OgKQ6f-20" value="номер паспорта" style="ellipse;whiteSpace=wrap;html=1;align=center;" parent="1" vertex="1">
          <mxGeometry x="-185" y="250" width="100" height="40" as="geometry" />
        </mxCell>
        <mxCell id="x2GnNRhoElomt2OgKQ6f-22" value="дата рождения" style="ellipse;whiteSpace=wrap;html=1;align=center;" parent="1" vertex="1">
          <mxGeometry x="-182" y="533" width="100" height="40" as="geometry" />
        </mxCell>
        <mxCell id="x2GnNRhoElomt2OgKQ6f-25" value="id" style="ellipse;whiteSpace=wrap;html=1;align=center;fontStyle=4;" parent="1" vertex="1">
          <mxGeometry x="-93" y="623" width="100" height="40" as="geometry" />
        </mxCell>
        <mxCell id="x2GnNRhoElomt2OgKQ6f-27" value="Название города" style="ellipse;whiteSpace=wrap;html=1;align=center;" parent="1" vertex="1">
          <mxGeometry x="-93" y="668" width="100" height="40" as="geometry" />
        </mxCell>
        <mxCell id="x2GnNRhoElomt2OgKQ6f-29" value="описание" style="ellipse;whiteSpace=wrap;html=1;align=center;" parent="1" vertex="1">
          <mxGeometry x="-100" y="714" width="100" height="40" as="geometry" />
        </mxCell>
        <mxCell id="x2GnNRhoElomt2OgKQ6f-31" value="id" style="ellipse;whiteSpace=wrap;html=1;align=center;fontStyle=4;" parent="1" vertex="1">
          <mxGeometry x="-107" y="947" width="100" height="40" as="geometry" />
        </mxCell>
        <mxCell id="x2GnNRhoElomt2OgKQ6f-33" value="название отеля" style="ellipse;whiteSpace=wrap;html=1;align=center;" parent="1" vertex="1">
          <mxGeometry x="-2" y="947" width="100" height="40" as="geometry" />
        </mxCell>
        <mxCell id="x2GnNRhoElomt2OgKQ6f-35" value="кол-во звезд" style="ellipse;whiteSpace=wrap;html=1;align=center;" parent="1" vertex="1">
          <mxGeometry x="105" y="947" width="100" height="40" as="geometry" />
        </mxCell>
        <mxCell id="x2GnNRhoElomt2OgKQ6f-37" value="адрес" style="ellipse;whiteSpace=wrap;html=1;align=center;" parent="1" vertex="1">
          <mxGeometry x="217" y="947" width="100" height="40" as="geometry" />
        </mxCell>
        <mxCell id="x2GnNRhoElomt2OgKQ6f-41" value="описание отеля" style="ellipse;whiteSpace=wrap;html=1;align=center;" parent="1" vertex="1">
          <mxGeometry x="332" y="944" width="100" height="40" as="geometry" />
        </mxCell>
        <mxCell id="x2GnNRhoElomt2OgKQ6f-43" value="телефон" style="ellipse;whiteSpace=wrap;html=1;align=center;" parent="1" vertex="1">
          <mxGeometry x="460" y="947" width="100" height="40" as="geometry" />
        </mxCell>
        <mxCell id="x2GnNRhoElomt2OgKQ6f-46" value="id" style="ellipse;whiteSpace=wrap;html=1;align=center;fontStyle=4;" parent="1" vertex="1">
          <mxGeometry x="713" y="385" width="100" height="40" as="geometry" />
        </mxCell>
        <mxCell id="x2GnNRhoElomt2OgKQ6f-48" value="название типа" style="ellipse;whiteSpace=wrap;html=1;align=center;" parent="1" vertex="1">
          <mxGeometry x="738" y="430" width="100" height="40" as="geometry" />
        </mxCell>
        <mxCell id="x2GnNRhoElomt2OgKQ6f-51" value="категория" style="ellipse;whiteSpace=wrap;html=1;align=center;" parent="1" vertex="1">
          <mxGeometry x="740" y="470" width="100" height="40" as="geometry" />
        </mxCell>
        <mxCell id="x2GnNRhoElomt2OgKQ6f-53" value="id" style="ellipse;whiteSpace=wrap;html=1;align=center;fontStyle=4;" parent="1" vertex="1">
          <mxGeometry x="713" y="533" width="100" height="40" as="geometry" />
        </mxCell>
        <mxCell id="x2GnNRhoElomt2OgKQ6f-57" value="название тура" style="ellipse;whiteSpace=wrap;html=1;align=center;" parent="1" vertex="1">
          <mxGeometry x="838" y="535" width="100" height="40" as="geometry" />
        </mxCell>
        <mxCell id="x2GnNRhoElomt2OgKQ6f-67" value="дата начала" style="ellipse;whiteSpace=wrap;html=1;align=center;" parent="1" vertex="1">
          <mxGeometry x="1117" y="535" width="100" height="40" as="geometry" />
        </mxCell>
        <mxCell id="x2GnNRhoElomt2OgKQ6f-68" value="дата окончания" style="ellipse;whiteSpace=wrap;html=1;align=center;" parent="1" vertex="1">
          <mxGeometry x="976" y="535" width="100" height="40" as="geometry" />
        </mxCell>
        <mxCell id="x2GnNRhoElomt2OgKQ6f-69" value="цена" style="ellipse;whiteSpace=wrap;html=1;align=center;" parent="1" vertex="1">
          <mxGeometry x="976" y="628" width="100" height="40" as="geometry" />
        </mxCell>
        <mxCell id="x2GnNRhoElomt2OgKQ6f-70" value="доступные места&amp;nbsp;" style="ellipse;whiteSpace=wrap;html=1;align=center;" parent="1" vertex="1">
          <mxGeometry x="855" y="628" width="100" height="40" as="geometry" />
        </mxCell>
        <mxCell id="x2GnNRhoElomt2OgKQ6f-71" value="продолжитель&lt;span style=&quot;background-color: transparent; color: light-dark(rgb(0, 0, 0), rgb(255, 255, 255));&quot;&gt;ность&lt;/span&gt;&lt;div&gt;&lt;div&gt;тура&lt;/div&gt;&lt;/div&gt;" style="ellipse;whiteSpace=wrap;html=1;align=center;" parent="1" vertex="1">
          <mxGeometry x="715" y="628" width="123" height="40" as="geometry" />
        </mxCell>
        <mxCell id="x2GnNRhoElomt2OgKQ6f-78" value="id" style="ellipse;whiteSpace=wrap;html=1;align=center;fontStyle=4;" parent="1" vertex="1">
          <mxGeometry x="702" y="830" width="100" height="40" as="geometry" />
        </mxCell>
        <mxCell id="x2GnNRhoElomt2OgKQ6f-85" value="авиакомания" style="ellipse;whiteSpace=wrap;html=1;align=center;" parent="1" vertex="1">
          <mxGeometry x="702" y="890" width="100" height="40" as="geometry" />
        </mxCell>
        <mxCell id="x2GnNRhoElomt2OgKQ6f-87" value="номер рейса" style="ellipse;whiteSpace=wrap;html=1;align=center;" parent="1" vertex="1">
          <mxGeometry x="700" y="944" width="100" height="40" as="geometry" />
        </mxCell>
        <mxCell id="x2GnNRhoElomt2OgKQ6f-88" value="город вылета" style="ellipse;whiteSpace=wrap;html=1;align=center;" parent="1" vertex="1">
          <mxGeometry x="702" y="997" width="100" height="40" as="geometry" />
        </mxCell>
        <mxCell id="x2GnNRhoElomt2OgKQ6f-89" value="город прилета" style="ellipse;whiteSpace=wrap;html=1;align=center;" parent="1" vertex="1">
          <mxGeometry x="700" y="1050" width="100" height="40" as="geometry" />
        </mxCell>
        <mxCell id="x2GnNRhoElomt2OgKQ6f-90" value="дата вылета" style="ellipse;whiteSpace=wrap;html=1;align=center;" parent="1" vertex="1">
          <mxGeometry x="959" y="887" width="100" height="40" as="geometry" />
        </mxCell>
        <mxCell id="x2GnNRhoElomt2OgKQ6f-92" value="дата прилета" style="ellipse;whiteSpace=wrap;html=1;align=center;" parent="1" vertex="1">
          <mxGeometry x="959" y="833" width="100" height="40" as="geometry" />
        </mxCell>
        <mxCell id="x2GnNRhoElomt2OgKQ6f-93" value="время вылета" style="ellipse;whiteSpace=wrap;html=1;align=center;" parent="1" vertex="1">
          <mxGeometry x="959" y="997" width="100" height="40" as="geometry" />
        </mxCell>
        <mxCell id="x2GnNRhoElomt2OgKQ6f-94" value="время прилета" style="ellipse;whiteSpace=wrap;html=1;align=center;" parent="1" vertex="1">
          <mxGeometry x="959" y="947" width="100" height="40" as="geometry" />
        </mxCell>
        <mxCell id="x2GnNRhoElomt2OgKQ6f-95" value="класс перелета" style="ellipse;whiteSpace=wrap;html=1;align=center;" parent="1" vertex="1">
          <mxGeometry x="959" y="1050" width="100" height="40" as="geometry" />
        </mxCell>
        <mxCell id="x2GnNRhoElomt2OgKQ6f-104" value="id" style="ellipse;whiteSpace=wrap;html=1;align=center;fontStyle=4;" parent="1" vertex="1">
          <mxGeometry x="713" y="105" width="100" height="40" as="geometry" />
        </mxCell>
        <mxCell id="x2GnNRhoElomt2OgKQ6f-109" value="дата&lt;div&gt;бронирования&lt;/div&gt;" style="ellipse;whiteSpace=wrap;html=1;align=center;" parent="1" vertex="1">
          <mxGeometry x="838" y="104" width="100" height="40" as="geometry" />
        </mxCell>
        <mxCell id="x2GnNRhoElomt2OgKQ6f-110" value="кол-во человек" style="ellipse;whiteSpace=wrap;html=1;align=center;" parent="1" vertex="1">
          <mxGeometry x="955" y="105" width="100" height="40" as="geometry" />
        </mxCell>
        <mxCell id="x2GnNRhoElomt2OgKQ6f-112" value="общая стоимость" style="ellipse;whiteSpace=wrap;html=1;align=center;" parent="1" vertex="1">
          <mxGeometry x="835" y="218" width="100" height="40" as="geometry" />
        </mxCell>
        <mxCell id="x2GnNRhoElomt2OgKQ6f-113" value="статус" style="ellipse;whiteSpace=wrap;html=1;align=center;" parent="1" vertex="1">
          <mxGeometry x="725" y="218" width="100" height="40" as="geometry" />
        </mxCell>
        <mxCell id="x2GnNRhoElomt2OgKQ6f-122" value="id" style="ellipse;whiteSpace=wrap;html=1;align=center;fontStyle=4;" parent="1" vertex="1">
          <mxGeometry x="698" y="265" width="100" height="40" as="geometry" />
        </mxCell>
        <mxCell id="x2GnNRhoElomt2OgKQ6f-124" value="сумма оплаты" style="ellipse;whiteSpace=wrap;html=1;align=center;" parent="1" vertex="1">
          <mxGeometry x="808" y="265" width="100" height="40" as="geometry" />
        </mxCell>
        <mxCell id="x2GnNRhoElomt2OgKQ6f-125" value="дата оплаты" style="ellipse;whiteSpace=wrap;html=1;align=center;" parent="1" vertex="1">
          <mxGeometry x="926" y="275" width="100" height="40" as="geometry" />
        </mxCell>
        <mxCell id="x2GnNRhoElomt2OgKQ6f-126" value="способ оплаты" style="ellipse;whiteSpace=wrap;html=1;align=center;" parent="1" vertex="1">
          <mxGeometry x="912" y="354" width="100" height="40" as="geometry" />
        </mxCell>
        <mxCell id="x2GnNRhoElomt2OgKQ6f-127" value="номер карты&lt;div&gt;маскированный&lt;/div&gt;" style="ellipse;whiteSpace=wrap;html=1;align=center;" parent="1" vertex="1">
          <mxGeometry x="808" y="360" width="100" height="40" as="geometry" />
        </mxCell>
        <mxCell id="x2GnNRhoElomt2OgKQ6f-135" value="id" style="ellipse;whiteSpace=wrap;html=1;align=center;fontStyle=4;" parent="1" vertex="1">
          <mxGeometry x="-85" y="-36" width="100" height="40" as="geometry" />
        </mxCell>
        <mxCell id="x2GnNRhoElomt2OgKQ6f-139" value="логин" style="ellipse;whiteSpace=wrap;html=1;align=center;" parent="1" vertex="1">
          <mxGeometry x="19" y="-54" width="100" height="40" as="geometry" />
        </mxCell>
        <mxCell id="x2GnNRhoElomt2OgKQ6f-142" value="имя" style="ellipse;whiteSpace=wrap;html=1;align=center;" parent="1" vertex="1">
          <mxGeometry x="133" y="-71" width="100" height="40" as="geometry" />
        </mxCell>
        <mxCell id="x2GnNRhoElomt2OgKQ6f-143" value="фамилия" style="ellipse;whiteSpace=wrap;html=1;align=center;" parent="1" vertex="1">
          <mxGeometry x="244" y="-71" width="100" height="40" as="geometry" />
        </mxCell>
        <mxCell id="x2GnNRhoElomt2OgKQ6f-145" value="отчество" style="ellipse;whiteSpace=wrap;html=1;align=center;" parent="1" vertex="1">
          <mxGeometry x="353" y="-63" width="100" height="40" as="geometry" />
        </mxCell>
        <mxCell id="x2GnNRhoElomt2OgKQ6f-147" value="телефон" style="ellipse;whiteSpace=wrap;html=1;align=center;" parent="1" vertex="1">
          <mxGeometry x="453" y="-36" width="100" height="40" as="geometry" />
        </mxCell>
        <mxCell id="x2GnNRhoElomt2OgKQ6f-149" value="активен" style="ellipse;whiteSpace=wrap;html=1;align=center;" parent="1" vertex="1">
          <mxGeometry x="513" y="6" width="100" height="40" as="geometry" />
        </mxCell>
      </root>
    </mxGraphModel>
  </diagram>
</mxfile>
